<?xml version="1.0" encoding="utf-8"?>
<!-- Generator: Adobe Illustrator 22.0.0, SVG Export Plug-In . SVG Version: 6.00 Build 0)  -->
<svg version="1.1" id="Capa_1" xmlns="http://www.w3.org/2000/svg" xmlns:xlink="http://www.w3.org/1999/xlink" x="0px" y="0px"
	 viewBox="0 0 511 386.8" style="enable-background:new 0 0 511 386.8;" xml:space="preserve">
<style type="text/css">
	path{fill:#fff;}
	.st0{fill:#9B1916;}
</style>
<g>
	<path d="M100.8,2.5c0,1.3,0,380,0,381.5s-0.9,2.6-2.5,2.6c-0.6,0-27.6,0-28.8,0c-1.5,0-2.5-1.1-2.5-2.6s0-380.1,0-381.5
		c0-1.6,1-2.5,2.5-2.5c1.1,0,27.2,0,28.8,0C99.9,0,100.8,1,100.8,2.5z"/>
	<path d="M50.2,2.5c0,1,0,380.1,0,381.6c0,1.4-1,2.5-2.5,2.5c-0.8,0-10.5,0-11.5,0c-1.6,0-2.6-1-2.6-2.5c0-1.4,0-380.2,0-381.6
		c0-1.5,1-2.5,2.6-2.5c0.9,0,9.9,0,11.5,0C49.2,0,50.2,1,50.2,2.5z"/>
	<path d="M16.6,2.6c0,1,0,380.1,0,381.6c0,1.4-1,2.5-2.5,2.5c-0.8,0-10.5,0-11.5,0c-1.6,0-2.6-1-2.6-2.5C0,382.7,0,4,0,2.6
		C0,1.1,1,0,2.6,0c0.9,0,9.9,0,11.5,0C15.6,0,16.6,1.1,16.6,2.6z"/>
	<path d="M327.6,293.4c-0.9,41.5-12.6,87.5-88.6,93.4c0,0-83.6,0-85.1,0c-1.5,0-2.6-1.2-2.6-2.7c0-1,0-380.1,0-381.5
		c0-1.6,1-2.5,2.5-2.5c1.6,0,84.5,0,84.5,0S322-4.8,322,106.7c-0.1,71.1-50.1,83-50.1,83.6c0,0.1-0.1-0.1,0,0
		C317.6,214.9,328.4,256.6,327.6,293.4z M265.7,270.5c-1.9-34.9-29.1-49.6-49.1-49.7c-4.5,0-7.4,0-9.2,0c-1.5,0-2.5,1.1-2.5,2.6
		c0,16.7,0,108.5,0,110c0,1.7,1,2.8,2.5,2.8c1.1,0,7.2,0,9.2,0c47.2,0.2,49.1-51.1,49.1-51.1v-6.5
		C265.7,278.7,265.7,278.2,265.7,270.5z M264.4,96.7c-1.9-32.6-29.1-46.4-49.1-46.5c-3.9,0-6.3,0-7.9,0c-1.5,0-2.5,1-2.5,2.6
		c0,1.1,0,86.1,0,102.6c0,1.6,0.9,2.7,2.4,2.8c2.4,0,5.9,0,7.9,0c47.2,0.2,49.1-47.9,49.1-47.9v-6.1
		C264.4,104.3,264.4,103.9,264.4,96.7z"/>
	<path d="M134.4,2.5c0,1,0,380.1,0,381.6c0,1.4-1,2.5-2.5,2.5c-0.8,0-10.5,0-11.5,0c-1.6,0-2.6-1-2.6-2.5c0-1.4,0-380.2,0-381.6
		c0-1.5,1-2.5,2.6-2.5c0.9,0,9.9,0,11.5,0C133.4,0,134.4,1,134.4,2.5z"/>
</g>
<path class="st0" d="M290.2,236.6c13.9-26,127-232.9,127.6-234c0.7-1.3,2.3-2.6,3.9-2.6c1.2,0,52.8,0,54.4,0c1.6,0,2.5,1,2.5,2.5
	c0,1.3,0,208.1,0,234.1c0,1.5,1,2.6,2.5,2.6c7,0,26.2,0,27.4,0c1.5,0,2.6,1,2.6,2.5c0,9.5,0,48.6,0,49.9c0,1.4-1,2.6-2.6,2.6
	c-7,0-26.1,0-27.4,0c-1.6,0-2.5,1-2.5,2.5c0,14.3,0,86.3,0,87.6c0,1.5-1.1,2.5-2.5,2.5c-1.2,0-51.4,0-52.7,0c-1.5,0-2.5-1-2.5-2.5
	c0-0.9,0-73.2,0-87.6c0-1.6-1-2.5-2.5-2.5c-18,0-125.6,0-127.1,0c-1.6,0-2.5-1.1-2.5-2.6c0-7.8,0-48.5,0-49.9
	C288.8,240.2,289.3,238.3,290.2,236.6z M419.6,120.3c-0.1,0.3-69.4,115-70.1,116.3c-1,1.8-0.5,2.6,1,2.6c1,0,55.4,0,67.8,0
	c1.5,0,2.6-1.1,2.5-2.6c0-17.7,0-114.5,0-115.9C420.9,119.7,420.1,119.4,419.6,120.3z"/>
</svg>
